#!OML:ASF C:\Vicon Data\Big\jianyuan-13\jianyuan\Session 1\Capture.male.ASF
:FULLY-SPECIFIED
:DEGREES
223
root -4.509337 17.706690 -9.350920 0.026069 10.662015 -0.904596
lowerback -7.325393 -0.622165 -2.643206 
upperback 3.367937 -0.495606 -0.820273 
thorax 7.676858 -0.352032 0.553400 
lowerneck -0.805933 -3.161538 2.007885 
upperneck 17.055150 -4.047606 -2.533387 
head 5.159541 -2.016115 -1.307537 
rclavicle 0.000000 0.000000 
rhumerus -39.499173 -19.061473 -77.034076 
rradius 37.783630 
rwrist 24.462707 
rhand -19.216977 -17.865031 
rfingers 0.000000 
rthumb 7.095727 -47.726118 
lclavicle 0.000000 0.000000 
lhumerus -35.357226 29.433913 71.721217 
lradius 27.838882 
lwrist -53.300503 
lhand -18.973979 0.037400 
lfingers 0.000000 
lthumb 7.330279 29.890418 
rfemur -70.635142 -8.190293 18.409739 
rtibia 70.309412 
rfoot -5.965737 -2.188558 
rtoes -39.061983 
lfemur 3.840665 -4.403138 -24.141005 
ltibia 10.523168 
lfoot -13.513362 0.584458 
ltoes -27.781400 
224
root -4.499035 17.690408 -9.281419 0.135323 10.643979 -0.814268
lowerback -7.511406 -0.579558 -2.550829 
upperback 3.317754 -0.434903 -0.930392 
thorax 7.727205 -0.314588 0.392839 
lowerneck -0.767680 -3.112451 1.914115 
upperneck 16.993482 -4.026781 -2.184135 
head 5.145038 -1.990182 -1.181345 
rclavicle 0.000000 0.000000 
rhumerus -39.510673 -19.182980 -77.087105 
rradius 37.875588 
rwrist 24.125476 
rhand -19.140486 -17.779211 
rfingers 0.000000 
rthumb 7.169547 -47.637765 
lclavicle 0.000000 0.000000 
lhumerus -35.619477 29.566679 71.346175 
lradius 27.677152 
lwrist -53.353566 
lhand -18.860146 0.080344 
lfingers 0.000000 
lthumb 7.440157 29.929492 
rfemur -69.685637 -7.984222 18.305009 
rtibia 69.211411 
rfoot -6.202378 -2.526761 
rtoes -39.219850 
lfemur 3.710017 -4.377185 -24.247348 
ltibia 11.107106 
lfoot -13.941112 0.421939 
ltoes -27.847305 
225
root -4.497354 17.674889 -9.206124 0.226867 10.658688 -0.755442
lowerback -7.736370 -0.637911 -2.596503 
upperback 3.285951 -0.500413 -0.935275 
thorax 7.826136 -0.349336 0.401985 
lowerneck -0.789672 -3.131132 1.838587 
upperneck 17.105379 -4.019926 -2.371760 
head 5.180542 -2.002891 -1.228894 
rclavicle 0.000000 0.000000 
rhumerus -39.490151 -18.871233 -77.241653 
rradius 38.047506 
rwrist 24.167338 
rhand -19.206723 -17.957450 
rfingers 0.000000 
rthumb 7.105621 -47.818184 
lclavicle 0.000000 0.000000 
lhumerus -36.023618 30.391296 70.653514 
lradius 27.376164 
lwrist -54.250353 
lhand -18.853250 0.128791 
lfingers 0.000000 
lthumb 7.446838 29.977724 
rfemur -68.686532 -7.679670 18.196778 
rtibia 68.180525 
rfoot -6.566662 -2.975640 
rtoes -38.872712 
lfemur 3.647446 -4.304672 -24.266268 
ltibia 11.613546 
lfoot -14.314993 0.155946 
ltoes -27.682194 
226
root -4.487022 17.656693 -9.136840 0.342900 10.721205 -0.578408
lowerback -7.866731 -0.623241 -2.648285 
upperback 3.227714 -0.467030 -0.997423 
thorax 7.838508 -0.333495 0.369666 
lowerneck -0.835096 -3.188194 1.810594 
upperneck 17.192027 -4.083531 -2.453542 
head 5.212321 -2.040502 -1.254672 
rclavicle 0.000000 0.000000 
rhumerus -39.600639 -18.903210 -77.221591 
rradius 38.284144 
rwrist 24.004313 
rhand -19.305992 -17.997469 
rfingers 0.000000 
rthumb 7.009769 -47.861404 
lclavicle 0.000000 0.000000 
lhumerus -36.356356 30.818975 70.213193 
lradius 27.145975 
lwrist -54.917423 
lhand -18.866639 0.116637 
lfingers 0.000000 
lthumb 7.433853 29.966027 
rfemur -67.767067 -7.557305 18.014581 
rtibia 67.217047 
rfoot -6.858449 -3.284530 
rtoes -38.349852 
lfemur 3.485913 -4.327223 -24.460578 
ltibia 12.240972 
lfoot -14.701715 -0.037945 
ltoes -27.690863 
